<?xml version="1.0" encoding="UTF-8"?>
<svg width="48px" height="48px" viewBox="0 0 48 48" version="1.1" xmlns="http://www.w3.org/2000/svg" xmlns:xlink="http://www.w3.org/1999/xlink">
    <title>Artboard</title>
    <g id="Artboard" stroke="none" stroke-width="1" fill="none" fill-rule="evenodd">
        <path d="M19.96875,0 C14.3530734,5.2625232 7.96875,14.276524 7.96875,25.96875 C7.96875,31.136741 9.28005,35.4729821 11.625,39.46875 L11.625,39.46875 L14.625,39.46875 C12.2633431,34.6934135 11.4650375,30.4547492 11.4375,26.0625 C11.4650375,14.7644078 17.4512687,5.7988469 23.4375,0 L23.4375,0 L36.5625,0 C43.5,0 48,4.5 48,11.4375 L48,36.5625 C48,43.5 43.5,48 36.5625,48 L27.9077631,48 C33.552116,42.68899 39.9375,33.6257723 39.9375,21.9802328 C39.9375,16.9997048 38.7711193,12.7894286 36.5921042,8.9556913 L36.345832,8.53125 L33.3052645,8.53125 C35.6421998,13.2087025 36.4412125,17.4972386 36.4412125,21.8826552 C36.4412125,32.9537151 30.6506685,41.8565043 24.7631789,47.7098766 L24.46875,48 L11.4375,48 C4.5,48 0,43.5 0,36.5625 L0,11.4375 C0,4.5 4.5,0 11.4375,0 L19.96875,0 Z M31.125,22.78125 L17.4663109,22.78125 L16.78125,25.40625 L30.4392303,25.40625 L31.125,22.78125 Z" id="Logo" fill="#41D974" fill-rule="nonzero"></path>
    </g>
</svg>